<svg xmlns="http://www.w3.org/2000/svg" width="398" height="49" viewBox="0 0 398 49" fill="none"><path d="M271.837 39.5505V15.3472C271.837 15.208 271.947 15.094 272.086 15.094H277.012C277.151 15.094 277.26 15.208 277.26 15.3472V24.4925C278.135 22.9395 279.852 21.5257 282.611 21.5257C287.02 21.5257 288.674 24.3871 288.674 28.3542V39.5505C288.674 39.6897 288.564 39.8038 288.425 39.8038H283.533C283.394 39.8038 283.284 39.6897 283.284 39.5505V29.768C283.284 27.3539 282.544 25.9401 280.491 25.9401C278.438 25.9401 277.226 27.3877 277.226 30.0086V39.5505C277.226 39.6897 277.117 39.8038 276.978 39.8038H272.086C271.947 39.8038 271.837 39.6897 271.837 39.5505Z" fill="white"></path><path d="M290.39 31.0464V30.7004C290.39 25.3196 294.025 21.5256 299.515 21.5256C305.005 21.5256 308.64 25.3196 308.64 30.7004V31.0464C308.64 36.4611 305.039 40.2551 299.515 40.2551C293.991 40.2551 290.39 36.4611 290.39 31.0464ZM303.184 31.0464V30.7004C303.184 27.4593 302.073 25.733 299.515 25.733C296.957 25.733 295.847 27.4593 295.847 30.7004V31.0464C295.847 34.3214 296.991 36.0475 299.515 36.0475C302.039 36.0475 303.184 34.3214 303.184 31.0464Z" fill="white"></path><path d="M312.59 34.4226V25.9399H309.59C309.498 25.9399 309.426 25.8639 309.426 25.7711V22.1459C309.426 22.0529 309.502 21.977 309.59 21.977H312.59V15.2668C312.59 15.1739 312.666 15.098 312.754 15.098H317.806C317.899 15.098 317.971 15.1739 317.971 15.2668V21.977H321.833C321.925 21.977 321.997 22.0529 321.997 22.1459V25.7711C321.997 25.8639 321.921 25.9399 321.833 25.9399H317.971V34.0428C317.971 35.4566 318.644 36.0433 320.327 36.0433C321.033 36.0433 321.37 35.9124 321.849 35.7605L322.064 35.9208V39.6684C322.064 39.7445 322.013 39.812 321.942 39.8331C321.067 40.0863 320.108 40.2466 319.014 40.2466C314.605 40.2466 312.586 38.2463 312.586 34.4184L312.59 34.4226Z" fill="white"></path><path d="M324.374 39.6348V22.1459C324.374 22.0531 324.45 21.977 324.538 21.977H329.591C329.683 21.977 329.755 22.0531 329.755 22.1459V24.6992C330.562 23.1124 332.178 21.5256 334.875 21.5256C337.571 21.5256 339.25 22.5932 340.125 24.8384C341.337 22.7705 343.221 21.5256 345.745 21.5256C350.02 21.5256 351.707 24.3531 351.707 28.4933V39.6348C351.707 39.7276 351.631 39.8035 351.543 39.8035H346.49C346.398 39.8035 346.326 39.7276 346.326 39.6348V29.5271C346.326 27.0793 345.417 25.9061 343.734 25.9061C341.85 25.9061 340.739 27.2862 340.739 30.2193V39.6348C340.739 39.7276 340.663 39.8035 340.575 39.8035H335.522C335.43 39.8035 335.358 39.7276 335.358 39.6348V29.5609C335.358 27.147 334.551 25.9061 332.834 25.9061C330.983 25.9061 329.772 27.2145 329.772 30.1813V39.6348C329.772 39.7276 329.696 39.8035 329.607 39.8035H324.555C324.462 39.8035 324.391 39.7276 324.391 39.6348H324.374Z" fill="white"></path><path d="M353.583 34.8362C353.583 31.7681 355.501 29.9407 358.833 29.5229L364.896 28.6958V27.5563C364.896 26.248 364.054 25.4546 362.304 25.4546C360.554 25.4546 359.616 26.1297 359.427 27.3832C359.414 27.4676 359.342 27.5268 359.262 27.5268H354.475C354.378 27.5268 354.298 27.4423 354.307 27.341C354.601 23.6609 357.74 21.5256 362.409 21.5256C367.079 21.5256 370.15 23.8678 370.15 27.5943V39.6306C370.15 39.7234 370.074 39.7993 369.986 39.7993H365.257C365.169 39.7993 365.098 39.7276 365.093 39.6431L364.934 37.149C363.89 39.0819 361.938 40.2509 359.313 40.2509C355.947 40.2509 353.591 37.9762 353.591 34.8362H353.583ZM364.896 33.3211V32.0467L360.79 32.5996C359.444 32.7726 358.804 33.4266 358.804 34.4945C358.804 35.6677 359.645 36.3556 361.194 36.3556C363.213 36.3556 364.896 35.1485 364.896 33.3211Z" fill="white"></path><path d="M388.173 25.9399H385.173C385.08 25.9399 385.009 25.8639 385.009 25.7711V22.1459C385.009 22.0529 385.085 21.977 385.173 21.977H388.173V15.2668C388.173 15.1739 388.248 15.098 388.337 15.098H393.389C393.482 15.098 393.553 15.1739 393.553 15.2668V21.977H397.764C397.857 21.977 397.929 22.0529 397.929 22.1459V25.7711C397.929 25.8639 397.853 25.9399 397.764 25.9399H393.553V34.0428C393.553 35.4566 394.226 36.0433 395.909 36.0433C396.624 36.0433 397.234 35.9083 397.79 35.7563C397.895 35.7266 398 35.8069 398 35.9208V39.6726C398 39.7487 397.949 39.8162 397.878 39.8373C396.974 40.0904 395.695 40.2509 394.597 40.2509C390.188 40.2509 388.168 38.2505 388.168 34.4226V25.9356L388.173 25.9399Z" fill="white"></path><path d="M382.838 21.9861C379.931 21.7202 378.455 22.7289 377.668 24.8095V22.1464C377.668 22.0536 377.592 21.9777 377.504 21.9777H372.712C372.62 21.9777 372.548 22.0536 372.548 22.1464V39.6353C372.548 39.7281 372.624 39.8042 372.712 39.8042H377.504C377.596 39.8042 377.668 39.7281 377.668 39.6353V31.4944C377.668 26.1599 379.788 25.7296 382.813 25.9194C382.91 25.9237 382.99 25.8477 382.99 25.7507V22.155C382.99 22.0705 382.922 21.9903 382.838 21.9819V21.9861Z" fill="white"></path><path d="M262.233 23.0199C261.602 20.7831 260.689 18.6012 259.381 16.4447C259.381 16.4447 258.148 14.4063 257.63 13.7901C257.504 13.6298 257.248 13.807 257.344 13.9885C257.492 14.2923 257.622 14.6637 257.529 15.0309C257.378 15.474 256.882 15.7863 256.423 15.626C256.301 15.5753 256.187 15.5036 256.086 15.398C255.615 14.9127 255.375 14.1151 255.068 13.098C254.795 12.1949 254.458 11.068 253.844 9.8526C252.851 7.87751 251.673 6.9617 251.627 6.92372C251.568 6.8773 251.484 6.8773 251.421 6.92372C251.358 6.97014 251.332 7.04612 251.358 7.12208C251.362 7.13896 251.858 8.76798 250.903 10.0003C250.525 10.4941 249.944 10.7895 249.271 10.8317C248.594 10.8739 247.925 10.6502 247.521 10.2493C246.524 9.24911 246.406 7.47658 246.427 6.51014C246.49 3.28584 247.466 1.02799 247.975 0.281001C248.022 0.217696 248.017 0.12907 247.967 0.065766C247.916 0.00668189 247.837 -0.0186402 247.765 0.015122C243.815 1.72856 240.954 4.64899 239.494 8.45991C238.67 10.7262 238.312 11.7602 238.022 12.4101C237.752 13.0052 237.504 13.2795 237.252 13.4314C237.113 13.5158 236.94 13.5622 236.768 13.5707C236.511 13.5453 235.237 13.309 236.347 11.182C236.44 11.0047 236.196 10.8233 236.061 10.971L235.186 11.9332C235.148 11.9754 235.106 12.0176 235.068 12.0598L234.921 12.2202C234.896 12.2497 234.875 12.275 234.854 12.3046C232.094 15.4529 230.163 19.479 229.052 23.2055C228.055 26.7887 227.992 29.6457 228.001 30.7346C228.001 30.8275 228.001 30.9075 228.001 30.975C228.001 35.7905 229.835 40.3146 233.171 43.7203C236.503 47.122 240.937 49 245.649 49C250.361 49 254.795 47.1262 258.127 43.7203C261.459 40.3146 263.297 35.7905 263.297 30.975C263.297 27.9069 262.902 25.4086 262.233 23.0199ZM245.649 40.3061C240.605 40.3061 236.511 36.1281 236.511 30.975C236.511 25.8222 240.601 21.644 245.649 21.644C250.697 21.644 254.786 25.8222 254.786 30.975C254.786 36.1281 250.697 40.3061 245.649 40.3061Z" fill="#FF4000"></path><path d="M1.2642 38V23.4545H7.00284C8.10606 23.4545 9.04593 23.6652 9.82244 24.0866C10.599 24.5033 11.1908 25.0833 11.598 25.8267C12.0099 26.5653 12.2159 27.4176 12.2159 28.3835C12.2159 29.3494 12.0076 30.2017 11.5909 30.9403C11.1742 31.679 10.5705 32.2543 9.77983 32.6662C8.99384 33.0781 8.04214 33.2841 6.92472 33.2841H3.26705V30.8196H6.42756C7.01941 30.8196 7.5071 30.7178 7.89062 30.5142C8.27888 30.3059 8.56771 30.0194 8.7571 29.6548C8.95123 29.2855 9.0483 28.8617 9.0483 28.3835C9.0483 27.9006 8.95123 27.4792 8.7571 27.1193C8.56771 26.7547 8.27888 26.473 7.89062 26.2741C7.50237 26.0705 7.00994 25.9688 6.41335 25.9688H4.33949V38H1.2642ZM15.0408 38H11.7454L16.7667 23.4545H20.7298L25.744 38H22.4485L18.805 26.7784H18.6914L15.0408 38ZM14.8349 32.2827H22.619V34.6832H14.8349V32.2827ZM36.456 28.1562C36.3565 27.8106 36.2169 27.5052 36.0369 27.2401C35.857 26.9702 35.6368 26.7429 35.3764 26.5582C35.1207 26.3688 34.8272 26.2244 34.4957 26.125C34.169 26.0256 33.8068 25.9759 33.4091 25.9759C32.6657 25.9759 32.0123 26.1605 31.4489 26.5298C30.8902 26.8991 30.4545 27.4366 30.142 28.142C29.8295 28.8428 29.6733 29.6998 29.6733 30.7131C29.6733 31.7263 29.8272 32.5881 30.1349 33.2983C30.4427 34.0085 30.8783 34.5507 31.4418 34.9247C32.0052 35.294 32.6705 35.4787 33.4375 35.4787C34.1335 35.4787 34.7277 35.3556 35.2202 35.1094C35.7173 34.8584 36.0961 34.5057 36.3565 34.0511C36.6217 33.5966 36.7543 33.0592 36.7543 32.4389L37.3793 32.5312H33.6293V30.2159H39.7159V32.0483C39.7159 33.3267 39.446 34.4252 38.9062 35.3438C38.3665 36.2576 37.6231 36.9631 36.6761 37.4602C35.7292 37.9527 34.6449 38.1989 33.4233 38.1989C32.0597 38.1989 30.8617 37.8982 29.8295 37.2969C28.7973 36.6908 27.9924 35.8314 27.4148 34.7188C26.8419 33.6013 26.5554 32.2756 26.5554 30.7415C26.5554 29.5625 26.7259 28.5114 27.0668 27.5881C27.4124 26.66 27.8954 25.8741 28.5156 25.2301C29.1359 24.5862 29.858 24.0961 30.6818 23.7599C31.5057 23.4238 32.3982 23.2557 33.3594 23.2557C34.1832 23.2557 34.9503 23.3764 35.6605 23.6179C36.3707 23.8546 37.0005 24.1908 37.5497 24.6264C38.1037 25.062 38.5559 25.5805 38.9062 26.1818C39.2566 26.7784 39.4815 27.4366 39.581 28.1562H36.456ZM44.0838 38H40.7884L45.8097 23.4545H49.7727L54.7869 38H51.4915L47.848 26.7784H47.7344L44.0838 38ZM43.8778 32.2827H51.6619V34.6832H43.8778V32.2827ZM56.5376 23.4545H60.3303L64.3359 33.2273H64.5064L68.5121 23.4545H72.3047V38H69.3217V28.5327H69.201L65.4368 37.929H63.4055L59.6413 28.4972H59.5206V38H56.5376V23.4545ZM74.8384 38V23.4545H84.6396V25.9901H77.9137V29.456H84.1353V31.9915H77.9137V35.4645H84.668V38H74.8384ZM99.2507 23.4545V38H96.5945L90.2663 28.8452H90.1598V38H87.0845V23.4545H89.7834L96.0618 32.6023H96.1896V23.4545H99.2507ZM101.238 25.9901V23.4545H113.184V25.9901H108.73V38H105.691V25.9901H101.238ZM127.853 30.7273C127.853 32.3134 127.553 33.6629 126.951 34.7756C126.355 35.8883 125.54 36.7382 124.508 37.3253C123.481 37.9077 122.325 38.1989 121.042 38.1989C119.75 38.1989 118.59 37.9053 117.562 37.3182C116.535 36.7311 115.723 35.8812 115.126 34.7685C114.529 33.6558 114.231 32.3087 114.231 30.7273C114.231 29.1411 114.529 27.7917 115.126 26.679C115.723 25.5663 116.535 24.7187 117.562 24.1364C118.59 23.5492 119.75 23.2557 121.042 23.2557C122.325 23.2557 123.481 23.5492 124.508 24.1364C125.54 24.7187 126.355 25.5663 126.951 26.679C127.553 27.7917 127.853 29.1411 127.853 30.7273ZM124.735 30.7273C124.735 29.6998 124.582 28.8333 124.274 28.1278C123.971 27.4223 123.542 26.8873 122.988 26.5227C122.434 26.1581 121.786 25.9759 121.042 25.9759C120.299 25.9759 119.65 26.1581 119.096 26.5227C118.542 26.8873 118.111 27.4223 117.804 28.1278C117.501 28.8333 117.349 29.6998 117.349 30.7273C117.349 31.7547 117.501 32.6212 117.804 33.3267C118.111 34.0322 118.542 34.5672 119.096 34.9318C119.65 35.2964 120.299 35.4787 121.042 35.4787C121.786 35.4787 122.434 35.2964 122.988 34.9318C123.542 34.5672 123.971 34.0322 124.274 33.3267C124.582 32.6212 124.735 31.7547 124.735 30.7273ZM142.651 27.6378C142.594 27.0649 142.35 26.6198 141.919 26.3026C141.489 25.9853 140.904 25.8267 140.165 25.8267C139.663 25.8267 139.239 25.8977 138.894 26.0398C138.548 26.1771 138.283 26.3688 138.098 26.6151C137.918 26.8613 137.828 27.1406 137.828 27.4531C137.819 27.7135 137.873 27.9408 137.992 28.1349C138.115 28.3291 138.283 28.4972 138.496 28.6392C138.709 28.7765 138.955 28.8973 139.235 29.0014C139.514 29.1009 139.812 29.1861 140.13 29.2571L141.436 29.5696C142.071 29.7116 142.653 29.901 143.184 30.1378C143.714 30.3745 144.173 30.6657 144.561 31.0114C144.95 31.357 145.25 31.7642 145.463 32.233C145.681 32.7017 145.792 33.2391 145.797 33.8452C145.792 34.7353 145.565 35.5071 145.115 36.1605C144.67 36.8092 144.026 37.3134 143.184 37.6733C142.346 38.0284 141.335 38.206 140.151 38.206C138.977 38.206 137.954 38.026 137.083 37.6662C136.216 37.3063 135.539 36.7737 135.051 36.0682C134.569 35.358 134.315 34.4796 134.292 33.4332H137.267C137.301 33.9209 137.44 34.3281 137.686 34.6548C137.937 34.9768 138.271 35.2206 138.688 35.3864C139.109 35.5473 139.585 35.6278 140.115 35.6278C140.636 35.6278 141.088 35.5521 141.472 35.4006C141.86 35.2491 142.161 35.0384 142.374 34.7685C142.587 34.4986 142.694 34.1884 142.694 33.8381C142.694 33.5114 142.596 33.2367 142.402 33.0142C142.213 32.7917 141.934 32.6023 141.564 32.446C141.2 32.2898 140.752 32.1477 140.222 32.0199L138.638 31.6222C137.412 31.3239 136.444 30.8575 135.733 30.223C135.023 29.5885 134.67 28.7339 134.675 27.6591C134.67 26.7784 134.905 26.009 135.378 25.3509C135.856 24.6927 136.512 24.179 137.346 23.8097C138.179 23.4403 139.126 23.2557 140.186 23.2557C141.266 23.2557 142.208 23.4403 143.013 23.8097C143.823 24.179 144.453 24.6927 144.902 25.3509C145.352 26.009 145.584 26.7713 145.598 27.6378H142.651ZM147.866 38V23.4545H157.667V25.9901H150.941V29.456H157.163V31.9915H150.941V35.4645H157.695V38H147.866ZM169.757 28.1562C169.657 27.8106 169.518 27.5052 169.338 27.2401C169.158 26.9702 168.938 26.7429 168.677 26.5582C168.422 26.3688 168.128 26.2244 167.797 26.125C167.47 26.0256 167.108 25.9759 166.71 25.9759C165.967 25.9759 165.313 26.1605 164.75 26.5298C164.191 26.8991 163.755 27.4366 163.443 28.142C163.13 28.8428 162.974 29.6998 162.974 30.7131C162.974 31.7263 163.128 32.5881 163.436 33.2983C163.743 34.0085 164.179 34.5507 164.743 34.9247C165.306 35.294 165.971 35.4787 166.738 35.4787C167.434 35.4787 168.029 35.3556 168.521 35.1094C169.018 34.8584 169.397 34.5057 169.657 34.0511C169.922 33.5966 170.055 33.0592 170.055 32.4389L170.68 32.5312H166.93V30.2159H173.017V32.0483C173.017 33.3267 172.747 34.4252 172.207 35.3438C171.667 36.2576 170.924 36.9631 169.977 37.4602C169.03 37.9527 167.946 38.1989 166.724 38.1989C165.36 38.1989 164.163 37.8982 163.13 37.2969C162.098 36.6908 161.293 35.8314 160.716 34.7188C160.143 33.6013 159.856 32.2756 159.856 30.7415C159.856 29.5625 160.027 28.5114 160.368 27.5881C160.713 26.66 161.196 25.8741 161.816 25.2301C162.437 24.5862 163.159 24.0961 163.983 23.7599C164.806 23.4238 165.699 23.2557 166.66 23.2557C167.484 23.2557 168.251 23.3764 168.961 23.6179C169.672 23.8546 170.301 24.1908 170.85 24.6264C171.404 25.062 171.857 25.5805 172.207 26.1818C172.557 26.7784 172.782 27.4366 172.882 28.1562H169.757ZM184.311 23.4545H187.386V32.9006C187.386 33.9612 187.133 34.8892 186.626 35.6847C186.125 36.4801 185.421 37.1004 184.517 37.5455C183.613 37.9858 182.559 38.206 181.357 38.206C180.149 38.206 179.093 37.9858 178.189 37.5455C177.285 37.1004 176.581 36.4801 176.08 35.6847C175.578 34.8892 175.327 33.9612 175.327 32.9006V23.4545H178.402V32.6378C178.402 33.1918 178.523 33.6842 178.764 34.1151C179.01 34.5459 179.356 34.8845 179.801 35.1307C180.246 35.3769 180.765 35.5 181.357 35.5C181.953 35.5 182.472 35.3769 182.912 35.1307C183.357 34.8845 183.7 34.5459 183.942 34.1151C184.188 33.6842 184.311 33.1918 184.311 32.6378V23.4545ZM189.917 38V23.4545H195.655C196.754 23.4545 197.691 23.651 198.468 24.044C199.249 24.4323 199.843 24.9839 200.25 25.6989C200.662 26.4091 200.868 27.2448 200.868 28.206C200.868 29.1719 200.66 30.0028 200.243 30.6989C199.827 31.3902 199.223 31.9205 198.432 32.2898C197.646 32.6591 196.694 32.8438 195.577 32.8438H191.735V30.3722H195.08C195.667 30.3722 196.155 30.2917 196.543 30.1307C196.931 29.9697 197.22 29.7282 197.409 29.4062C197.604 29.0843 197.701 28.6842 197.701 28.206C197.701 27.723 197.604 27.3158 197.409 26.9844C197.22 26.6529 196.929 26.402 196.536 26.2315C196.148 26.0563 195.658 25.9688 195.066 25.9688H192.992V38H189.917ZM197.772 31.3807L201.387 38H197.992L194.455 31.3807H197.772ZM216.408 30.7273C216.408 32.3134 216.107 33.6629 215.506 34.7756C214.909 35.8883 214.095 36.7382 213.063 37.3253C212.035 37.9077 210.88 38.1989 209.597 38.1989C208.304 38.1989 207.144 37.9053 206.117 37.3182C205.089 36.7311 204.277 35.8812 203.681 34.7685C203.084 33.6558 202.786 32.3087 202.786 30.7273C202.786 29.1411 203.084 27.7917 203.681 26.679C204.277 25.5663 205.089 24.7187 206.117 24.1364C207.144 23.5492 208.304 23.2557 209.597 23.2557C210.88 23.2557 212.035 23.5492 213.063 24.1364C214.095 24.7187 214.909 25.5663 215.506 26.679C216.107 27.7917 216.408 29.1411 216.408 30.7273ZM213.29 30.7273C213.29 29.6998 213.136 28.8333 212.828 28.1278C212.525 27.4223 212.097 26.8873 211.543 26.5227C210.989 26.1581 210.34 25.9759 209.597 25.9759C208.854 25.9759 208.205 26.1581 207.651 26.5227C207.097 26.8873 206.666 27.4223 206.358 28.1278C206.055 28.8333 205.904 29.6998 205.904 30.7273C205.904 31.7547 206.055 32.6212 206.358 33.3267C206.666 34.0322 207.097 34.5672 207.651 34.9318C208.205 35.2964 208.854 35.4787 209.597 35.4787C210.34 35.4787 210.989 35.2964 211.543 34.9318C212.097 34.5672 212.525 34.0322 212.828 33.3267C213.136 32.6212 213.29 31.7547 213.29 30.7273Z" fill="white"></path></svg>